<svg preserveAspectRatio="none" overflow="visible" style="display: block;" width="13" height="16" viewBox="0 0 13 16" fill="none" xmlns="http://www.w3.org/2000/svg">
<g id="Untitled-2 1" clip-path="url(#clip0_0_111)">
<path id="Vector" d="M12.7722 4.46332L7.98995 7.93349C7.61505 8.20534 7.08072 7.94631 7.08072 7.49231V6.2874C5.46653 6.1771 4.1287 6.62664 2.91841 7.39844C1.79345 8.11593 0.989946 9.07239 0.62913 9.55034C0.529158 9.68264 0.317725 9.64978 0.264005 9.49408C0.093364 8.99719 0 8.33402 0 7.85411C0 5.36965 1.17868 3.85279 3.05717 2.75734C4.1106 2.14319 5.31715 1.73236 7.08072 1.64212V0.551686C7.08072 0.0976865 7.61505 -0.161622 7.98995 0.110499L12.7722 3.58095C13.0758 3.80154 13.0758 4.24301 12.7722 4.4636V4.46332Z" fill="white"/>
<path id="Vector_2" d="M0.227736 11.6026L5.00998 8.13242C5.38487 7.86058 5.9192 8.11961 5.9192 8.57361V9.77852C7.5334 9.88881 8.87123 9.43927 10.0815 8.66747C11.2065 7.94998 12.01 6.99352 12.3708 6.51557C12.4708 6.38327 12.6822 6.41613 12.7359 6.57183C12.9069 7.069 13.0002 7.73218 13.0002 8.21208C13.0002 10.6965 11.8215 12.2134 9.94305 13.3088C8.88962 13.923 7.68307 14.3338 5.91949 14.4241V15.5142C5.91949 15.9682 5.38516 16.2275 5.01027 15.9554L0.227736 12.4852C-0.0759121 12.2647 -0.0759121 11.8232 0.227736 11.6026Z" fill="white"/>
</g>
<defs>
<clipPath id="clip0_0_111">
<rect width="13" height="16" fill="white"/>
</clipPath>
</defs>
</svg>
