<svg preserveAspectRatio="none" overflow="visible" style="display: block;" width="26" height="22.8603" viewBox="0 0 26 22.8603" fill="none" xmlns="http://www.w3.org/2000/svg">
<g id="Group">
<g id="Generative_Object">
<path id="Vector" d="M15.2827 3.21428L14.6996 3.79053C14.1915 4.26559 13.6751 4.71815 13.142 5.17072C12.6005 4.71253 12.0786 4.25153 11.5649 3.77085C11.3844 3.60219 11.2123 3.43634 11.0429 3.25644C10.7319 2.93037 10.4709 2.57619 10.3515 2.14048C10.2321 1.70478 10.2821 1.22412 10.507 0.822148C10.9485 0.0406983 11.9286 -0.243212 12.6894 0.240275C12.8699 0.355525 13.017 0.498887 13.142 0.673167C13.589 0.0519425 14.3665 -0.175747 15.0495 0.144703C15.4854 0.347093 15.8075 0.737817 15.938 1.20725C16.0324 1.553 16.0185 1.9128 15.9019 2.25012C15.777 2.61835 15.5521 2.92475 15.2827 3.21709V3.21428Z" fill="#FF5C5C"/>
</g>
<path id="Vector_2" d="M4.92865 13.834C6.23209 13.834 7.28874 12.7643 7.28874 11.4447C7.28874 10.1251 6.23209 9.05534 4.92865 9.05534C3.62521 9.05534 2.56856 10.1251 2.56856 11.4447C2.56856 12.7643 3.62521 13.834 4.92865 13.834Z" fill="#75D49F"/>
<path id="Vector_3" d="M21.3607 13.834C22.6641 13.834 23.7208 12.7643 23.7208 11.4447C23.7208 10.1251 22.6641 9.05534 21.3607 9.05534C20.0573 9.05534 19.0006 10.1251 19.0006 11.4447C19.0006 12.7643 20.0573 13.834 21.3607 13.834Z" fill="#FEC440"/>
<path id="Vector_4" d="M0.38872 22.86C0.138827 22.2219 0 21.4883 0 20.7602C0 17.685 2.46283 15.1889 5.50319 15.1889C8.54354 15.1889 11.0064 17.6822 11.0064 20.7602C11.0064 21.5023 10.862 22.2107 10.6038 22.86H0.391499H0.38872Z" fill="#75D49F"/>
<path id="Vector_5" d="M15.3823 22.86C15.1325 22.2219 14.9936 21.4883 14.9936 20.7602C14.9936 17.685 17.4565 15.1889 20.4968 15.1889C23.5372 15.1889 26 17.6822 26 20.7602C26 21.5023 25.8556 22.2107 25.5974 22.86H15.3851H15.3823Z" fill="#FEC440"/>
<path id="Vector_6" d="M13.1444 12.2344C14.6656 12.2344 15.8987 10.986 15.8987 9.44596C15.8987 7.90593 14.6656 6.65748 13.1444 6.65748C11.6232 6.65748 10.39 7.90593 10.39 9.44596C10.39 10.986 11.6232 12.2344 13.1444 12.2344Z" fill="#62B2F7"/>
<path id="Vector_7" d="M6.98857 22.8603C6.68593 22.0929 6.5221 21.2103 6.5221 20.3333C6.5221 16.6312 9.48749 13.6291 13.1443 13.6291C16.801 13.6291 19.7664 16.6312 19.7664 20.3333C19.7664 21.2272 19.5943 22.0789 19.2805 22.8603H6.98857Z" fill="#62B2F7"/>
</g>
</svg>
